<svg width="12" height="15" viewBox="0 0 12 15" fill="none" xmlns="http://www.w3.org/2000/svg">
<path d="M5.99999 7.49998C5.26666 7.49998 4.66666 6.89998 4.66666 6.16665C4.66666 5.43331 5.26666 4.83331 5.99999 4.83331C6.73332 4.83331 7.33332 5.43331 7.33332 6.16665C7.33332 6.89998 6.73332 7.49998 5.99999 7.49998ZM9.99999 6.29998C9.99999 3.87998 8.23332 2.16665 5.99999 2.16665C3.76666 2.16665 1.99999 3.87998 1.99999 6.29998C1.99999 7.85998 3.29999 9.92665 5.99999 12.3933C8.69999 9.92665 9.99999 7.85998 9.99999 6.29998ZM5.99999 0.833313C8.79999 0.833313 11.3333 2.97998 11.3333 6.29998C11.3333 8.51331 9.55332 11.1333 5.99999 14.1666C2.44666 11.1333 0.666656 8.51331 0.666656 6.29998C0.666656 2.97998 3.19999 0.833313 5.99999 0.833313Z" fill="#0D2834"/>
</svg>
